<?xml version="1.0" encoding="utf-8"?>
<!-- Generator: Adobe Illustrator 25.3.1, SVG Export Plug-In . SVG Version: 6.00 Build 0)  -->
<svg version="1.1" id="图层_1" xmlns="http://www.w3.org/2000/svg" xmlns:xlink="http://www.w3.org/1999/xlink" x="0px" y="0px"
	 viewBox="0 0 200 200" style="enable-background:new 0 0 200 200;" xml:space="preserve">
<style type="text/css">
	.st0{fill:#177DDC;}
</style>
<path class="st0" d="M31.3,66.5l11.7,123c0,5.8,4.7,10.4,10.4,10.4h86.1c5.8,0,10.4-4.7,10.4-10.4l11.7-123c0.1-0.7-0.5-1.4-1.3-1.4
	H32.6C31.8,65.1,31.3,65.8,31.3,66.5z M118.8,169.4l4.7-73.4c0-2.5,2.1-4.6,4.6-4.6h3.8c2.5,0,4.6,2.1,4.6,4.6l-4.7,73.4
	c0,2.5-2.1,4.6-4.6,4.6h-3.8C120.8,174,118.8,171.9,118.8,169.4z M89.9,96c0-2.5,2.1-4.6,4.6-4.6h3.8c2.5,0,4.6,2.1,4.6,4.6v73.4
	c0,2.5-2.1,4.6-4.6,4.6h-3.8c-2.5,0-4.6-2.1-4.6-4.6V96z M56.2,96c0-2.5,2.1-4.6,4.6-4.6h3.8c2.5,0,4.6,2.1,4.6,4.6l4.7,73.4
	c0,2.5-2.1,4.6-4.6,4.6h-3.8c-2.5,0-4.6-2.1-4.6-4.6L56.2,96z"/>
<path class="st0" d="M28.4,28.2l1.7-7.5c1.3-5.8,7.1-9.4,12.9-8.1l119.5,27.5c5.8,1.3,9.4,7.1,8.1,12.9l-1.7,7.5
	c-0.2,0.8-0.9,1.3-1.7,1.1L29.5,29.9C28.7,29.7,28.3,29,28.4,28.2z"/>
<path class="st0" d="M123,28l8.6,2l0.6-2.6c2.3-9.8-3.9-19.7-13.7-22L98,0.7c-9.8-2.3-19.7,3.9-22,13.7L75.4,17l8.7,2l0.7-3.2
	C86,10.3,91.6,6.9,97,8.2l19.2,4.5c5.5,1.2,8.9,6.8,7.6,12.2C123.8,24.9,123.1,28,123,28z"/>
</svg>
