<?xml version="1.0" encoding="utf-8"?>
<!-- Generator: Adobe Illustrator 25.3.1, SVG Export Plug-In . SVG Version: 6.00 Build 0)  -->
<svg version="1.1" id="图层_1" xmlns="http://www.w3.org/2000/svg" xmlns:xlink="http://www.w3.org/1999/xlink" x="0px" y="0px"
	 viewBox="0 0 200 200" style="enable-background:new 0 0 200 200;" xml:space="preserve">
<style type="text/css">
	.st0{fill:#FFFFFF;}
</style>
<path class="st0" d="M34.2,65.7l11.7,123c0,5.8,4.7,10.4,10.4,10.4h86.1c5.8,0,10.4-4.7,10.4-10.4l11.7-123c0.1-0.7-0.5-1.4-1.3-1.4
	H35.6C34.8,64.3,34.2,64.9,34.2,65.7z M121.7,168.5l4.7-73.4c0-2.5,2.1-4.6,4.6-4.6h3.8c2.5,0,4.6,2.1,4.6,4.6l-4.7,73.4
	c0,2.5-2.1,4.6-4.6,4.6h-3.8C123.8,173.1,121.7,171.1,121.7,168.5z M92.8,95.1c0-2.5,2.1-4.6,4.6-4.6h3.8c2.5,0,4.6,2.1,4.6,4.6
	v73.4c0,2.5-2.1,4.6-4.6,4.6h-3.8c-2.5,0-4.6-2.1-4.6-4.6V95.1z M59.2,95.1c0-2.5,2.1-4.6,4.6-4.6h3.8c2.5,0,4.6,2.1,4.6,4.6
	l4.7,73.4c0,2.5-2.1,4.6-4.6,4.6h-3.8c-2.5,0-4.6-2.1-4.6-4.6L59.2,95.1z"/>
<path class="st0" d="M27.3,43.2v-7.7c0-5.9,4.9-10.7,10.8-10.7l122.6,0.3c5.9,0,10.7,4.9,10.7,10.8v7.7c0,0.8-0.6,1.4-1.4,1.4
	L28.7,44.6C27.9,44.6,27.3,44,27.3,43.2z"/>
<path class="st0" d="M119.5,22h8.8v-2.6C128.3,9.3,120.1,1,110,1L89,0.8C79,0.8,70.6,9,70.6,19.1v2.7h8.9v-3.2
	c0-5.6,4.6-10.1,10.2-10.1l19.7,0.1c5.6,0,10.1,4.6,10.1,10.2C119.5,18.8,119.4,22,119.5,22z"/>
</svg>
